<svg xmlns="http://www.w3.org/2000/svg" xmlns:xlink="http://www.w3.org/1999/xlink" version="1.1" x="0" y="0" viewbox="0 0 220.0 220.0" width="220.0" height="220.0">
<rect x="2" y="2" width="216" height="216" rx="10" stroke-width="4" stroke="#222222" fill="#FFFFFF" />
<g transform="translate(17.0, 17.0)">
<g shape-rendering="crispEdges" fill="#222222">
<rect x="57.72793103448275" y="0.01" width="6.413103448275861" height="6.413103448275861" rx="0"></rect>
<rect x="64.14103448275861" y="0.01" width="6.413103448275861" height="6.413103448275861" rx="0"></rect>
<rect x="70.55413793103448" y="0.01" width="6.413103448275861" height="6.413103448275861" rx="0"></rect>
<rect x="83.3803448275862" y="0.01" width="6.413103448275861" height="6.413103448275861" rx="0"></rect>
<rect x="96.20655172413792" y="0.01" width="6.413103448275861" height="6.413103448275861" rx="0"></rect>
<rect x="102.61965517241379" y="0.01" width="6.413103448275861" height="6.413103448275861" rx="0"></rect>
<rect x="115.44586206896551" y="0.01" width="6.413103448275861" height="6.413103448275861" rx="0"></rect>
<rect x="121.85896551724137" y="0.01" width="6.413103448275861" height="6.413103448275861" rx="0"></rect>
<rect x="64.14103448275861" y="6.423103448275861" width="6.413103448275861" height="6.413103448275861" rx="0"></rect>
<rect x="76.96724137931034" y="6.423103448275861" width="6.413103448275861" height="6.413103448275861" rx="0"></rect>
<rect x="96.20655172413792" y="6.423103448275861" width="6.413103448275861" height="6.413103448275861" rx="0"></rect>
<rect x="102.61965517241379" y="6.423103448275861" width="6.413103448275861" height="6.413103448275861" rx="0"></rect>
<rect x="115.44586206896551" y="6.423103448275861" width="6.413103448275861" height="6.413103448275861" rx="0"></rect>
<rect x="128.2720689655172" y="6.423103448275861" width="6.413103448275861" height="6.413103448275861" rx="0"></rect>
<rect x="51.31482758620689" y="12.836206896551722" width="6.413103448275861" height="6.413103448275861" rx="0"></rect>
<rect x="64.14103448275861" y="12.836206896551722" width="6.413103448275861" height="6.413103448275861" rx="0"></rect>
<rect x="70.55413793103448" y="12.836206896551722" width="6.413103448275861" height="6.413103448275861" rx="0"></rect>
<rect x="83.3803448275862" y="12.836206896551722" width="6.413103448275861" height="6.413103448275861" rx="0"></rect>
<rect x="96.20655172413792" y="12.836206896551722" width="6.413103448275861" height="6.413103448275861" rx="0"></rect>
<rect x="109.03275862068965" y="12.836206896551722" width="6.413103448275861" height="6.413103448275861" rx="0"></rect>
<rect x="115.44586206896551" y="12.836206896551722" width="6.413103448275861" height="6.413103448275861" rx="0"></rect>
<rect x="121.85896551724137" y="12.836206896551722" width="6.413103448275861" height="6.413103448275861" rx="0"></rect>
<rect x="128.2720689655172" y="12.836206896551722" width="6.413103448275861" height="6.413103448275861" rx="0"></rect>
<rect x="57.72793103448275" y="19.249310344827585" width="6.413103448275861" height="6.413103448275861" rx="0"></rect>
<rect x="64.14103448275861" y="19.249310344827585" width="6.413103448275861" height="6.413103448275861" rx="0"></rect>
<rect x="76.96724137931034" y="19.249310344827585" width="6.413103448275861" height="6.413103448275861" rx="0"></rect>
<rect x="83.3803448275862" y="19.249310344827585" width="6.413103448275861" height="6.413103448275861" rx="0"></rect>
<rect x="89.79344827586206" y="19.249310344827585" width="6.413103448275861" height="6.413103448275861" rx="0"></rect>
<rect x="96.20655172413792" y="19.249310344827585" width="6.413103448275861" height="6.413103448275861" rx="0"></rect>
<rect x="115.44586206896551" y="19.249310344827585" width="6.413103448275861" height="6.413103448275861" rx="0"></rect>
<rect x="121.85896551724137" y="19.249310344827585" width="6.413103448275861" height="6.413103448275861" rx="0"></rect>
<rect x="51.31482758620689" y="25.662413793103447" width="6.413103448275861" height="6.413103448275861" rx="0"></rect>
<rect x="57.72793103448275" y="25.662413793103447" width="6.413103448275861" height="6.413103448275861" rx="0"></rect>
<rect x="76.96724137931034" y="25.662413793103447" width="6.413103448275861" height="6.413103448275861" rx="0"></rect>
<rect x="89.79344827586206" y="25.662413793103447" width="6.413103448275861" height="6.413103448275861" rx="0"></rect>
<rect x="102.61965517241379" y="25.662413793103447" width="6.413103448275861" height="6.413103448275861" rx="0"></rect>
<rect x="115.44586206896551" y="25.662413793103447" width="6.413103448275861" height="6.413103448275861" rx="0"></rect>
<rect x="51.31482758620689" y="32.0755172413793" width="6.413103448275861" height="6.413103448275861" rx="0"></rect>
<rect x="57.72793103448275" y="32.0755172413793" width="6.413103448275861" height="6.413103448275861" rx="0"></rect>
<rect x="64.14103448275861" y="32.0755172413793" width="6.413103448275861" height="6.413103448275861" rx="0"></rect>
<rect x="76.96724137931034" y="32.0755172413793" width="6.413103448275861" height="6.413103448275861" rx="0"></rect>
<rect x="96.20655172413792" y="32.0755172413793" width="6.413103448275861" height="6.413103448275861" rx="0"></rect>
<rect x="115.44586206896551" y="32.0755172413793" width="6.413103448275861" height="6.413103448275861" rx="0"></rect>
<rect x="121.85896551724137" y="32.0755172413793" width="6.413103448275861" height="6.413103448275861" rx="0"></rect>
<rect x="51.31482758620689" y="38.488620689655164" width="6.413103448275861" height="6.413103448275861" rx="0"></rect>
<rect x="64.14103448275861" y="38.488620689655164" width="6.413103448275861" height="6.413103448275861" rx="0"></rect>
<rect x="76.96724137931034" y="38.488620689655164" width="6.413103448275861" height="6.413103448275861" rx="0"></rect>
<rect x="89.79344827586206" y="38.488620689655164" width="6.413103448275861" height="6.413103448275861" rx="0"></rect>
<rect x="102.61965517241379" y="38.488620689655164" width="6.413103448275861" height="6.413103448275861" rx="0"></rect>
<rect x="115.44586206896551" y="38.488620689655164" width="6.413103448275861" height="6.413103448275861" rx="0"></rect>
<rect x="128.2720689655172" y="38.488620689655164" width="6.413103448275861" height="6.413103448275861" rx="0"></rect>
<rect x="57.72793103448275" y="44.901724137931026" width="6.413103448275861" height="6.413103448275861" rx="0"></rect>
<rect x="70.55413793103448" y="44.901724137931026" width="6.413103448275861" height="6.413103448275861" rx="0"></rect>
<rect x="76.96724137931034" y="44.901724137931026" width="6.413103448275861" height="6.413103448275861" rx="0"></rect>
<rect x="83.3803448275862" y="44.901724137931026" width="6.413103448275861" height="6.413103448275861" rx="0"></rect>
<rect x="96.20655172413792" y="44.901724137931026" width="6.413103448275861" height="6.413103448275861" rx="0"></rect>
<rect x="102.61965517241379" y="44.901724137931026" width="6.413103448275861" height="6.413103448275861" rx="0"></rect>
<rect x="109.03275862068965" y="44.901724137931026" width="6.413103448275861" height="6.413103448275861" rx="0"></rect>
<rect x="115.44586206896551" y="44.901724137931026" width="6.413103448275861" height="6.413103448275861" rx="0"></rect>
<rect x="121.85896551724137" y="44.901724137931026" width="6.413103448275861" height="6.413103448275861" rx="0"></rect>
<rect x="6.423103448275861" y="51.31482758620689" width="6.413103448275861" height="6.413103448275861" rx="0"></rect>
<rect x="25.662413793103447" y="51.31482758620689" width="6.413103448275861" height="6.413103448275861" rx="0"></rect>
<rect x="38.488620689655164" y="51.31482758620689" width="6.413103448275861" height="6.413103448275861" rx="0"></rect>
<rect x="51.31482758620689" y="51.31482758620689" width="6.413103448275861" height="6.413103448275861" rx="0"></rect>
<rect x="57.72793103448275" y="51.31482758620689" width="6.413103448275861" height="6.413103448275861" rx="0"></rect>
<rect x="70.55413793103448" y="51.31482758620689" width="6.413103448275861" height="6.413103448275861" rx="0"></rect>
<rect x="96.20655172413792" y="51.31482758620689" width="6.413103448275861" height="6.413103448275861" rx="0"></rect>
<rect x="115.44586206896551" y="51.31482758620689" width="6.413103448275861" height="6.413103448275861" rx="0"></rect>
<rect x="121.85896551724137" y="51.31482758620689" width="6.413103448275861" height="6.413103448275861" rx="0"></rect>
<rect x="128.2720689655172" y="51.31482758620689" width="6.413103448275861" height="6.413103448275861" rx="0"></rect>
<rect x="134.68517241379308" y="51.31482758620689" width="6.413103448275861" height="6.413103448275861" rx="0"></rect>
<rect x="147.5113793103448" y="51.31482758620689" width="6.413103448275861" height="6.413103448275861" rx="0"></rect>
<rect x="153.92448275862066" y="51.31482758620689" width="6.413103448275861" height="6.413103448275861" rx="0"></rect>
<rect x="166.75068965517238" y="51.31482758620689" width="6.413103448275861" height="6.413103448275861" rx="0"></rect>
<rect x="0.01" y="57.72793103448275" width="6.413103448275861" height="6.413103448275861" rx="0"></rect>
<rect x="6.423103448275861" y="57.72793103448275" width="6.413103448275861" height="6.413103448275861" rx="0"></rect>
<rect x="44.901724137931026" y="57.72793103448275" width="6.413103448275861" height="6.413103448275861" rx="0"></rect>
<rect x="70.55413793103448" y="57.72793103448275" width="6.413103448275861" height="6.413103448275861" rx="0"></rect>
<rect x="83.3803448275862" y="57.72793103448275" width="6.413103448275861" height="6.413103448275861" rx="0"></rect>
<rect x="96.20655172413792" y="57.72793103448275" width="6.413103448275861" height="6.413103448275861" rx="0"></rect>
<rect x="109.03275862068965" y="57.72793103448275" width="6.413103448275861" height="6.413103448275861" rx="0"></rect>
<rect x="121.85896551724137" y="57.72793103448275" width="6.413103448275861" height="6.413103448275861" rx="0"></rect>
<rect x="128.2720689655172" y="57.72793103448275" width="6.413103448275861" height="6.413103448275861" rx="0"></rect>
<rect x="134.68517241379308" y="57.72793103448275" width="6.413103448275861" height="6.413103448275861" rx="0"></rect>
<rect x="141.09827586206893" y="57.72793103448275" width="6.413103448275861" height="6.413103448275861" rx="0"></rect>
<rect x="153.92448275862066" y="57.72793103448275" width="6.413103448275861" height="6.413103448275861" rx="0"></rect>
<rect x="173.16379310344826" y="57.72793103448275" width="6.413103448275861" height="6.413103448275861" rx="0"></rect>
<rect x="179.5768965517241" y="57.72793103448275" width="6.413103448275861" height="6.413103448275861" rx="0"></rect>
<rect x="6.423103448275861" y="64.14103448275861" width="6.413103448275861" height="6.413103448275861" rx="0"></rect>
<rect x="12.836206896551722" y="64.14103448275861" width="6.413103448275861" height="6.413103448275861" rx="0"></rect>
<rect x="25.662413793103447" y="64.14103448275861" width="6.413103448275861" height="6.413103448275861" rx="0"></rect>
<rect x="38.488620689655164" y="64.14103448275861" width="6.413103448275861" height="6.413103448275861" rx="0"></rect>
<rect x="44.901724137931026" y="64.14103448275861" width="6.413103448275861" height="6.413103448275861" rx="0"></rect>
<rect x="57.72793103448275" y="64.14103448275861" width="6.413103448275861" height="6.413103448275861" rx="0"></rect>
<rect x="64.14103448275861" y="64.14103448275861" width="6.413103448275861" height="6.413103448275861" rx="0"></rect>
<rect x="83.3803448275862" y="64.14103448275861" width="6.413103448275861" height="6.413103448275861" rx="0"></rect>
<rect x="96.20655172413792" y="64.14103448275861" width="6.413103448275861" height="6.413103448275861" rx="0"></rect>
<rect x="102.61965517241379" y="64.14103448275861" width="6.413103448275861" height="6.413103448275861" rx="0"></rect>
<rect x="115.44586206896551" y="64.14103448275861" width="6.413103448275861" height="6.413103448275861" rx="0"></rect>
<rect x="128.2720689655172" y="64.14103448275861" width="6.413103448275861" height="6.413103448275861" rx="0"></rect>
<rect x="134.68517241379308" y="64.14103448275861" width="6.413103448275861" height="6.413103448275861" rx="0"></rect>
<rect x="160.33758620689653" y="64.14103448275861" width="6.413103448275861" height="6.413103448275861" rx="0"></rect>
<rect x="166.75068965517238" y="64.14103448275861" width="6.413103448275861" height="6.413103448275861" rx="0"></rect>
<rect x="179.5768965517241" y="64.14103448275861" width="6.413103448275861" height="6.413103448275861" rx="0"></rect>
<rect x="0.01" y="70.55413793103448" width="6.413103448275861" height="6.413103448275861" rx="0"></rect>
<rect x="19.249310344827585" y="70.55413793103448" width="6.413103448275861" height="6.413103448275861" rx="0"></rect>
<rect x="25.662413793103447" y="70.55413793103448" width="6.413103448275861" height="6.413103448275861" rx="0"></rect>
<rect x="51.31482758620689" y="70.55413793103448" width="6.413103448275861" height="6.413103448275861" rx="0"></rect>
<rect x="57.72793103448275" y="70.55413793103448" width="6.413103448275861" height="6.413103448275861" rx="0"></rect>
<rect x="64.14103448275861" y="70.55413793103448" width="6.413103448275861" height="6.413103448275861" rx="0"></rect>
<rect x="70.55413793103448" y="70.55413793103448" width="6.413103448275861" height="6.413103448275861" rx="0"></rect>
<rect x="76.96724137931034" y="70.55413793103448" width="6.413103448275861" height="6.413103448275861" rx="0"></rect>
<rect x="89.79344827586206" y="70.55413793103448" width="6.413103448275861" height="6.413103448275861" rx="0"></rect>
<rect x="102.61965517241379" y="70.55413793103448" width="6.413103448275861" height="6.413103448275861" rx="0"></rect>
<rect x="109.03275862068965" y="70.55413793103448" width="6.413103448275861" height="6.413103448275861" rx="0"></rect>
<rect x="128.2720689655172" y="70.55413793103448" width="6.413103448275861" height="6.413103448275861" rx="0"></rect>
<rect x="134.68517241379308" y="70.55413793103448" width="6.413103448275861" height="6.413103448275861" rx="0"></rect>
<rect x="147.5113793103448" y="70.55413793103448" width="6.413103448275861" height="6.413103448275861" rx="0"></rect>
<rect x="160.33758620689653" y="70.55413793103448" width="6.413103448275861" height="6.413103448275861" rx="0"></rect>
<rect x="173.16379310344826" y="70.55413793103448" width="6.413103448275861" height="6.413103448275861" rx="0"></rect>
<rect x="179.5768965517241" y="70.55413793103448" width="6.413103448275861" height="6.413103448275861" rx="0"></rect>
<rect x="12.836206896551722" y="76.96724137931034" width="6.413103448275861" height="6.413103448275861" rx="0"></rect>
<rect x="19.249310344827585" y="76.96724137931034" width="6.413103448275861" height="6.413103448275861" rx="0"></rect>
<rect x="25.662413793103447" y="76.96724137931034" width="6.413103448275861" height="6.413103448275861" rx="0"></rect>
<rect x="38.488620689655164" y="76.96724137931034" width="6.413103448275861" height="6.413103448275861" rx="0"></rect>
<rect x="57.72793103448275" y="76.96724137931034" width="6.413103448275861" height="6.413103448275861" rx="0"></rect>
<rect x="70.55413793103448" y="76.96724137931034" width="6.413103448275861" height="6.413103448275861" rx="0"></rect>
<rect x="76.96724137931034" y="76.96724137931034" width="6.413103448275861" height="6.413103448275861" rx="0"></rect>
<rect x="83.3803448275862" y="76.96724137931034" width="6.413103448275861" height="6.413103448275861" rx="0"></rect>
<rect x="89.79344827586206" y="76.96724137931034" width="6.413103448275861" height="6.413103448275861" rx="0"></rect>
<rect x="96.20655172413792" y="76.96724137931034" width="6.413103448275861" height="6.413103448275861" rx="0"></rect>
<rect x="109.03275862068965" y="76.96724137931034" width="6.413103448275861" height="6.413103448275861" rx="0"></rect>
<rect x="121.85896551724137" y="76.96724137931034" width="6.413103448275861" height="6.413103448275861" rx="0"></rect>
<rect x="128.2720689655172" y="76.96724137931034" width="6.413103448275861" height="6.413103448275861" rx="0"></rect>
<rect x="147.5113793103448" y="76.96724137931034" width="6.413103448275861" height="6.413103448275861" rx="0"></rect>
<rect x="160.33758620689653" y="76.96724137931034" width="6.413103448275861" height="6.413103448275861" rx="0"></rect>
<rect x="179.5768965517241" y="76.96724137931034" width="6.413103448275861" height="6.413103448275861" rx="0"></rect>
<rect x="6.423103448275861" y="83.3803448275862" width="6.413103448275861" height="6.413103448275861" rx="0"></rect>
<rect x="19.249310344827585" y="83.3803448275862" width="6.413103448275861" height="6.413103448275861" rx="0"></rect>
<rect x="25.662413793103447" y="83.3803448275862" width="6.413103448275861" height="6.413103448275861" rx="0"></rect>
<rect x="51.31482758620689" y="83.3803448275862" width="6.413103448275861" height="6.413103448275861" rx="0"></rect>
<rect x="76.96724137931034" y="83.3803448275862" width="6.413103448275861" height="6.413103448275861" rx="0"></rect>
<rect x="109.03275862068965" y="83.3803448275862" width="6.413103448275861" height="6.413103448275861" rx="0"></rect>
<rect x="141.09827586206893" y="83.3803448275862" width="6.413103448275861" height="6.413103448275861" rx="0"></rect>
<rect x="153.92448275862066" y="83.3803448275862" width="6.413103448275861" height="6.413103448275861" rx="0"></rect>
<rect x="166.75068965517238" y="83.3803448275862" width="6.413103448275861" height="6.413103448275861" rx="0"></rect>
<rect x="179.5768965517241" y="83.3803448275862" width="6.413103448275861" height="6.413103448275861" rx="0"></rect>
<rect x="19.249310344827585" y="89.79344827586206" width="6.413103448275861" height="6.413103448275861" rx="0"></rect>
<rect x="32.0755172413793" y="89.79344827586206" width="6.413103448275861" height="6.413103448275861" rx="0"></rect>
<rect x="38.488620689655164" y="89.79344827586206" width="6.413103448275861" height="6.413103448275861" rx="0"></rect>
<rect x="51.31482758620689" y="89.79344827586206" width="6.413103448275861" height="6.413103448275861" rx="0"></rect>
<rect x="70.55413793103448" y="89.79344827586206" width="6.413103448275861" height="6.413103448275861" rx="0"></rect>
<rect x="83.3803448275862" y="89.79344827586206" width="6.413103448275861" height="6.413103448275861" rx="0"></rect>
<rect x="89.79344827586206" y="89.79344827586206" width="6.413103448275861" height="6.413103448275861" rx="0"></rect>
<rect x="96.20655172413792" y="89.79344827586206" width="6.413103448275861" height="6.413103448275861" rx="0"></rect>
<rect x="115.44586206896551" y="89.79344827586206" width="6.413103448275861" height="6.413103448275861" rx="0"></rect>
<rect x="128.2720689655172" y="89.79344827586206" width="6.413103448275861" height="6.413103448275861" rx="0"></rect>
<rect x="134.68517241379308" y="89.79344827586206" width="6.413103448275861" height="6.413103448275861" rx="0"></rect>
<rect x="141.09827586206893" y="89.79344827586206" width="6.413103448275861" height="6.413103448275861" rx="0"></rect>
<rect x="153.92448275862066" y="89.79344827586206" width="6.413103448275861" height="6.413103448275861" rx="0"></rect>
<rect x="173.16379310344826" y="89.79344827586206" width="6.413103448275861" height="6.413103448275861" rx="0"></rect>
<rect x="179.5768965517241" y="89.79344827586206" width="6.413103448275861" height="6.413103448275861" rx="0"></rect>
<rect x="6.423103448275861" y="96.20655172413792" width="6.413103448275861" height="6.413103448275861" rx="0"></rect>
<rect x="12.836206896551722" y="96.20655172413792" width="6.413103448275861" height="6.413103448275861" rx="0"></rect>
<rect x="44.901724137931026" y="96.20655172413792" width="6.413103448275861" height="6.413103448275861" rx="0"></rect>
<rect x="51.31482758620689" y="96.20655172413792" width="6.413103448275861" height="6.413103448275861" rx="0"></rect>
<rect x="57.72793103448275" y="96.20655172413792" width="6.413103448275861" height="6.413103448275861" rx="0"></rect>
<rect x="64.14103448275861" y="96.20655172413792" width="6.413103448275861" height="6.413103448275861" rx="0"></rect>
<rect x="70.55413793103448" y="96.20655172413792" width="6.413103448275861" height="6.413103448275861" rx="0"></rect>
<rect x="83.3803448275862" y="96.20655172413792" width="6.413103448275861" height="6.413103448275861" rx="0"></rect>
<rect x="89.79344827586206" y="96.20655172413792" width="6.413103448275861" height="6.413103448275861" rx="0"></rect>
<rect x="96.20655172413792" y="96.20655172413792" width="6.413103448275861" height="6.413103448275861" rx="0"></rect>
<rect x="121.85896551724137" y="96.20655172413792" width="6.413103448275861" height="6.413103448275861" rx="0"></rect>
<rect x="147.5113793103448" y="96.20655172413792" width="6.413103448275861" height="6.413103448275861" rx="0"></rect>
<rect x="160.33758620689653" y="96.20655172413792" width="6.413103448275861" height="6.413103448275861" rx="0"></rect>
<rect x="12.836206896551722" y="102.61965517241379" width="6.413103448275861" height="6.413103448275861" rx="0"></rect>
<rect x="19.249310344827585" y="102.61965517241379" width="6.413103448275861" height="6.413103448275861" rx="0"></rect>
<rect x="25.662413793103447" y="102.61965517241379" width="6.413103448275861" height="6.413103448275861" rx="0"></rect>
<rect x="38.488620689655164" y="102.61965517241379" width="6.413103448275861" height="6.413103448275861" rx="0"></rect>
<rect x="44.901724137931026" y="102.61965517241379" width="6.413103448275861" height="6.413103448275861" rx="0"></rect>
<rect x="57.72793103448275" y="102.61965517241379" width="6.413103448275861" height="6.413103448275861" rx="0"></rect>
<rect x="64.14103448275861" y="102.61965517241379" width="6.413103448275861" height="6.413103448275861" rx="0"></rect>
<rect x="70.55413793103448" y="102.61965517241379" width="6.413103448275861" height="6.413103448275861" rx="0"></rect>
<rect x="83.3803448275862" y="102.61965517241379" width="6.413103448275861" height="6.413103448275861" rx="0"></rect>
<rect x="89.79344827586206" y="102.61965517241379" width="6.413103448275861" height="6.413103448275861" rx="0"></rect>
<rect x="96.20655172413792" y="102.61965517241379" width="6.413103448275861" height="6.413103448275861" rx="0"></rect>
<rect x="102.61965517241379" y="102.61965517241379" width="6.413103448275861" height="6.413103448275861" rx="0"></rect>
<rect x="121.85896551724137" y="102.61965517241379" width="6.413103448275861" height="6.413103448275861" rx="0"></rect>
<rect x="128.2720689655172" y="102.61965517241379" width="6.413103448275861" height="6.413103448275861" rx="0"></rect>
<rect x="147.5113793103448" y="102.61965517241379" width="6.413103448275861" height="6.413103448275861" rx="0"></rect>
<rect x="173.16379310344826" y="102.61965517241379" width="6.413103448275861" height="6.413103448275861" rx="0"></rect>
<rect x="179.5768965517241" y="102.61965517241379" width="6.413103448275861" height="6.413103448275861" rx="0"></rect>
<rect x="0.01" y="109.03275862068965" width="6.413103448275861" height="6.413103448275861" rx="0"></rect>
<rect x="6.423103448275861" y="109.03275862068965" width="6.413103448275861" height="6.413103448275861" rx="0"></rect>
<rect x="19.249310344827585" y="109.03275862068965" width="6.413103448275861" height="6.413103448275861" rx="0"></rect>
<rect x="44.901724137931026" y="109.03275862068965" width="6.413103448275861" height="6.413103448275861" rx="0"></rect>
<rect x="57.72793103448275" y="109.03275862068965" width="6.413103448275861" height="6.413103448275861" rx="0"></rect>
<rect x="83.3803448275862" y="109.03275862068965" width="6.413103448275861" height="6.413103448275861" rx="0"></rect>
<rect x="115.44586206896551" y="109.03275862068965" width="6.413103448275861" height="6.413103448275861" rx="0"></rect>
<rect x="134.68517241379308" y="109.03275862068965" width="6.413103448275861" height="6.413103448275861" rx="0"></rect>
<rect x="141.09827586206893" y="109.03275862068965" width="6.413103448275861" height="6.413103448275861" rx="0"></rect>
<rect x="153.92448275862066" y="109.03275862068965" width="6.413103448275861" height="6.413103448275861" rx="0"></rect>
<rect x="160.33758620689653" y="109.03275862068965" width="6.413103448275861" height="6.413103448275861" rx="0"></rect>
<rect x="166.75068965517238" y="109.03275862068965" width="6.413103448275861" height="6.413103448275861" rx="0"></rect>
<rect x="179.5768965517241" y="109.03275862068965" width="6.413103448275861" height="6.413103448275861" rx="0"></rect>
<rect x="12.836206896551722" y="115.44586206896551" width="6.413103448275861" height="6.413103448275861" rx="0"></rect>
<rect x="19.249310344827585" y="115.44586206896551" width="6.413103448275861" height="6.413103448275861" rx="0"></rect>
<rect x="38.488620689655164" y="115.44586206896551" width="6.413103448275861" height="6.413103448275861" rx="0"></rect>
<rect x="44.901724137931026" y="115.44586206896551" width="6.413103448275861" height="6.413103448275861" rx="0"></rect>
<rect x="70.55413793103448" y="115.44586206896551" width="6.413103448275861" height="6.413103448275861" rx="0"></rect>
<rect x="76.96724137931034" y="115.44586206896551" width="6.413103448275861" height="6.413103448275861" rx="0"></rect>
<rect x="96.20655172413792" y="115.44586206896551" width="6.413103448275861" height="6.413103448275861" rx="0"></rect>
<rect x="109.03275862068965" y="115.44586206896551" width="6.413103448275861" height="6.413103448275861" rx="0"></rect>
<rect x="147.5113793103448" y="115.44586206896551" width="6.413103448275861" height="6.413103448275861" rx="0"></rect>
<rect x="153.92448275862066" y="115.44586206896551" width="6.413103448275861" height="6.413103448275861" rx="0"></rect>
<rect x="166.75068965517238" y="115.44586206896551" width="6.413103448275861" height="6.413103448275861" rx="0"></rect>
<rect x="179.5768965517241" y="115.44586206896551" width="6.413103448275861" height="6.413103448275861" rx="0"></rect>
<rect x="19.249310344827585" y="121.85896551724137" width="6.413103448275861" height="6.413103448275861" rx="0"></rect>
<rect x="44.901724137931026" y="121.85896551724137" width="6.413103448275861" height="6.413103448275861" rx="0"></rect>
<rect x="64.14103448275861" y="121.85896551724137" width="6.413103448275861" height="6.413103448275861" rx="0"></rect>
<rect x="96.20655172413792" y="121.85896551724137" width="6.413103448275861" height="6.413103448275861" rx="0"></rect>
<rect x="102.61965517241379" y="121.85896551724137" width="6.413103448275861" height="6.413103448275861" rx="0"></rect>
<rect x="109.03275862068965" y="121.85896551724137" width="6.413103448275861" height="6.413103448275861" rx="0"></rect>
<rect x="115.44586206896551" y="121.85896551724137" width="6.413103448275861" height="6.413103448275861" rx="0"></rect>
<rect x="121.85896551724137" y="121.85896551724137" width="6.413103448275861" height="6.413103448275861" rx="0"></rect>
<rect x="128.2720689655172" y="121.85896551724137" width="6.413103448275861" height="6.413103448275861" rx="0"></rect>
<rect x="160.33758620689653" y="121.85896551724137" width="6.413103448275861" height="6.413103448275861" rx="0"></rect>
<rect x="173.16379310344826" y="121.85896551724137" width="6.413103448275861" height="6.413103448275861" rx="0"></rect>
<rect x="0.01" y="128.2720689655172" width="6.413103448275861" height="6.413103448275861" rx="0"></rect>
<rect x="6.423103448275861" y="128.2720689655172" width="6.413103448275861" height="6.413103448275861" rx="0"></rect>
<rect x="19.249310344827585" y="128.2720689655172" width="6.413103448275861" height="6.413103448275861" rx="0"></rect>
<rect x="38.488620689655164" y="128.2720689655172" width="6.413103448275861" height="6.413103448275861" rx="0"></rect>
<rect x="44.901724137931026" y="128.2720689655172" width="6.413103448275861" height="6.413103448275861" rx="0"></rect>
<rect x="70.55413793103448" y="128.2720689655172" width="6.413103448275861" height="6.413103448275861" rx="0"></rect>
<rect x="76.96724137931034" y="128.2720689655172" width="6.413103448275861" height="6.413103448275861" rx="0"></rect>
<rect x="89.79344827586206" y="128.2720689655172" width="6.413103448275861" height="6.413103448275861" rx="0"></rect>
<rect x="102.61965517241379" y="128.2720689655172" width="6.413103448275861" height="6.413103448275861" rx="0"></rect>
<rect x="109.03275862068965" y="128.2720689655172" width="6.413103448275861" height="6.413103448275861" rx="0"></rect>
<rect x="121.85896551724137" y="128.2720689655172" width="6.413103448275861" height="6.413103448275861" rx="0"></rect>
<rect x="128.2720689655172" y="128.2720689655172" width="6.413103448275861" height="6.413103448275861" rx="0"></rect>
<rect x="134.68517241379308" y="128.2720689655172" width="6.413103448275861" height="6.413103448275861" rx="0"></rect>
<rect x="141.09827586206893" y="128.2720689655172" width="6.413103448275861" height="6.413103448275861" rx="0"></rect>
<rect x="147.5113793103448" y="128.2720689655172" width="6.413103448275861" height="6.413103448275861" rx="0"></rect>
<rect x="153.92448275862066" y="128.2720689655172" width="6.413103448275861" height="6.413103448275861" rx="0"></rect>
<rect x="160.33758620689653" y="128.2720689655172" width="6.413103448275861" height="6.413103448275861" rx="0"></rect>
<rect x="179.5768965517241" y="128.2720689655172" width="6.413103448275861" height="6.413103448275861" rx="0"></rect>
<rect x="51.31482758620689" y="134.68517241379308" width="6.413103448275861" height="6.413103448275861" rx="0"></rect>
<rect x="64.14103448275861" y="134.68517241379308" width="6.413103448275861" height="6.413103448275861" rx="0"></rect>
<rect x="76.96724137931034" y="134.68517241379308" width="6.413103448275861" height="6.413103448275861" rx="0"></rect>
<rect x="89.79344827586206" y="134.68517241379308" width="6.413103448275861" height="6.413103448275861" rx="0"></rect>
<rect x="96.20655172413792" y="134.68517241379308" width="6.413103448275861" height="6.413103448275861" rx="0"></rect>
<rect x="102.61965517241379" y="134.68517241379308" width="6.413103448275861" height="6.413103448275861" rx="0"></rect>
<rect x="128.2720689655172" y="134.68517241379308" width="6.413103448275861" height="6.413103448275861" rx="0"></rect>
<rect x="153.92448275862066" y="134.68517241379308" width="6.413103448275861" height="6.413103448275861" rx="0"></rect>
<rect x="166.75068965517238" y="134.68517241379308" width="6.413103448275861" height="6.413103448275861" rx="0"></rect>
<rect x="179.5768965517241" y="134.68517241379308" width="6.413103448275861" height="6.413103448275861" rx="0"></rect>
<rect x="57.72793103448275" y="141.09827586206893" width="6.413103448275861" height="6.413103448275861" rx="0"></rect>
<rect x="64.14103448275861" y="141.09827586206893" width="6.413103448275861" height="6.413103448275861" rx="0"></rect>
<rect x="70.55413793103448" y="141.09827586206893" width="6.413103448275861" height="6.413103448275861" rx="0"></rect>
<rect x="76.96724137931034" y="141.09827586206893" width="6.413103448275861" height="6.413103448275861" rx="0"></rect>
<rect x="89.79344827586206" y="141.09827586206893" width="6.413103448275861" height="6.413103448275861" rx="0"></rect>
<rect x="96.20655172413792" y="141.09827586206893" width="6.413103448275861" height="6.413103448275861" rx="0"></rect>
<rect x="102.61965517241379" y="141.09827586206893" width="6.413103448275861" height="6.413103448275861" rx="0"></rect>
<rect x="109.03275862068965" y="141.09827586206893" width="6.413103448275861" height="6.413103448275861" rx="0"></rect>
<rect x="121.85896551724137" y="141.09827586206893" width="6.413103448275861" height="6.413103448275861" rx="0"></rect>
<rect x="128.2720689655172" y="141.09827586206893" width="6.413103448275861" height="6.413103448275861" rx="0"></rect>
<rect x="141.09827586206893" y="141.09827586206893" width="6.413103448275861" height="6.413103448275861" rx="0"></rect>
<rect x="153.92448275862066" y="141.09827586206893" width="6.413103448275861" height="6.413103448275861" rx="0"></rect>
<rect x="179.5768965517241" y="141.09827586206893" width="6.413103448275861" height="6.413103448275861" rx="0"></rect>
<rect x="76.96724137931034" y="147.5113793103448" width="6.413103448275861" height="6.413103448275861" rx="0"></rect>
<rect x="83.3803448275862" y="147.5113793103448" width="6.413103448275861" height="6.413103448275861" rx="0"></rect>
<rect x="109.03275862068965" y="147.5113793103448" width="6.413103448275861" height="6.413103448275861" rx="0"></rect>
<rect x="115.44586206896551" y="147.5113793103448" width="6.413103448275861" height="6.413103448275861" rx="0"></rect>
<rect x="121.85896551724137" y="147.5113793103448" width="6.413103448275861" height="6.413103448275861" rx="0"></rect>
<rect x="128.2720689655172" y="147.5113793103448" width="6.413103448275861" height="6.413103448275861" rx="0"></rect>
<rect x="153.92448275862066" y="147.5113793103448" width="6.413103448275861" height="6.413103448275861" rx="0"></rect>
<rect x="160.33758620689653" y="147.5113793103448" width="6.413103448275861" height="6.413103448275861" rx="0"></rect>
<rect x="173.16379310344826" y="147.5113793103448" width="6.413103448275861" height="6.413103448275861" rx="0"></rect>
<rect x="179.5768965517241" y="147.5113793103448" width="6.413103448275861" height="6.413103448275861" rx="0"></rect>
<rect x="51.31482758620689" y="153.92448275862066" width="6.413103448275861" height="6.413103448275861" rx="0"></rect>
<rect x="64.14103448275861" y="153.92448275862066" width="6.413103448275861" height="6.413103448275861" rx="0"></rect>
<rect x="83.3803448275862" y="153.92448275862066" width="6.413103448275861" height="6.413103448275861" rx="0"></rect>
<rect x="89.79344827586206" y="153.92448275862066" width="6.413103448275861" height="6.413103448275861" rx="0"></rect>
<rect x="96.20655172413792" y="153.92448275862066" width="6.413103448275861" height="6.413103448275861" rx="0"></rect>
<rect x="115.44586206896551" y="153.92448275862066" width="6.413103448275861" height="6.413103448275861" rx="0"></rect>
<rect x="121.85896551724137" y="153.92448275862066" width="6.413103448275861" height="6.413103448275861" rx="0"></rect>
<rect x="128.2720689655172" y="153.92448275862066" width="6.413103448275861" height="6.413103448275861" rx="0"></rect>
<rect x="134.68517241379308" y="153.92448275862066" width="6.413103448275861" height="6.413103448275861" rx="0"></rect>
<rect x="141.09827586206893" y="153.92448275862066" width="6.413103448275861" height="6.413103448275861" rx="0"></rect>
<rect x="147.5113793103448" y="153.92448275862066" width="6.413103448275861" height="6.413103448275861" rx="0"></rect>
<rect x="153.92448275862066" y="153.92448275862066" width="6.413103448275861" height="6.413103448275861" rx="0"></rect>
<rect x="173.16379310344826" y="153.92448275862066" width="6.413103448275861" height="6.413103448275861" rx="0"></rect>
<rect x="57.72793103448275" y="160.33758620689653" width="6.413103448275861" height="6.413103448275861" rx="0"></rect>
<rect x="64.14103448275861" y="160.33758620689653" width="6.413103448275861" height="6.413103448275861" rx="0"></rect>
<rect x="70.55413793103448" y="160.33758620689653" width="6.413103448275861" height="6.413103448275861" rx="0"></rect>
<rect x="83.3803448275862" y="160.33758620689653" width="6.413103448275861" height="6.413103448275861" rx="0"></rect>
<rect x="102.61965517241379" y="160.33758620689653" width="6.413103448275861" height="6.413103448275861" rx="0"></rect>
<rect x="147.5113793103448" y="160.33758620689653" width="6.413103448275861" height="6.413103448275861" rx="0"></rect>
<rect x="166.75068965517238" y="160.33758620689653" width="6.413103448275861" height="6.413103448275861" rx="0"></rect>
<rect x="173.16379310344826" y="160.33758620689653" width="6.413103448275861" height="6.413103448275861" rx="0"></rect>
<rect x="70.55413793103448" y="166.75068965517238" width="6.413103448275861" height="6.413103448275861" rx="0"></rect>
<rect x="89.79344827586206" y="166.75068965517238" width="6.413103448275861" height="6.413103448275861" rx="0"></rect>
<rect x="102.61965517241379" y="166.75068965517238" width="6.413103448275861" height="6.413103448275861" rx="0"></rect>
<rect x="121.85896551724137" y="166.75068965517238" width="6.413103448275861" height="6.413103448275861" rx="0"></rect>
<rect x="128.2720689655172" y="166.75068965517238" width="6.413103448275861" height="6.413103448275861" rx="0"></rect>
<rect x="134.68517241379308" y="166.75068965517238" width="6.413103448275861" height="6.413103448275861" rx="0"></rect>
<rect x="166.75068965517238" y="166.75068965517238" width="6.413103448275861" height="6.413103448275861" rx="0"></rect>
<rect x="173.16379310344826" y="166.75068965517238" width="6.413103448275861" height="6.413103448275861" rx="0"></rect>
<rect x="179.5768965517241" y="166.75068965517238" width="6.413103448275861" height="6.413103448275861" rx="0"></rect>
<rect x="51.31482758620689" y="173.16379310344826" width="6.413103448275861" height="6.413103448275861" rx="0"></rect>
<rect x="70.55413793103448" y="173.16379310344826" width="6.413103448275861" height="6.413103448275861" rx="0"></rect>
<rect x="76.96724137931034" y="173.16379310344826" width="6.413103448275861" height="6.413103448275861" rx="0"></rect>
<rect x="83.3803448275862" y="173.16379310344826" width="6.413103448275861" height="6.413103448275861" rx="0"></rect>
<rect x="109.03275862068965" y="173.16379310344826" width="6.413103448275861" height="6.413103448275861" rx="0"></rect>
<rect x="128.2720689655172" y="173.16379310344826" width="6.413103448275861" height="6.413103448275861" rx="0"></rect>
<rect x="141.09827586206893" y="173.16379310344826" width="6.413103448275861" height="6.413103448275861" rx="0"></rect>
<rect x="147.5113793103448" y="173.16379310344826" width="6.413103448275861" height="6.413103448275861" rx="0"></rect>
<rect x="173.16379310344826" y="173.16379310344826" width="6.413103448275861" height="6.413103448275861" rx="0"></rect>
<rect x="179.5768965517241" y="173.16379310344826" width="6.413103448275861" height="6.413103448275861" rx="0"></rect>
<rect x="57.72793103448275" y="179.5768965517241" width="6.413103448275861" height="6.413103448275861" rx="0"></rect>
<rect x="64.14103448275861" y="179.5768965517241" width="6.413103448275861" height="6.413103448275861" rx="0"></rect>
<rect x="70.55413793103448" y="179.5768965517241" width="6.413103448275861" height="6.413103448275861" rx="0"></rect>
<rect x="76.96724137931034" y="179.5768965517241" width="6.413103448275861" height="6.413103448275861" rx="0"></rect>
<rect x="83.3803448275862" y="179.5768965517241" width="6.413103448275861" height="6.413103448275861" rx="0"></rect>
<rect x="96.20655172413792" y="179.5768965517241" width="6.413103448275861" height="6.413103448275861" rx="0"></rect>
<rect x="109.03275862068965" y="179.5768965517241" width="6.413103448275861" height="6.413103448275861" rx="0"></rect>
<rect x="115.44586206896551" y="179.5768965517241" width="6.413103448275861" height="6.413103448275861" rx="0"></rect>
<rect x="128.2720689655172" y="179.5768965517241" width="6.413103448275861" height="6.413103448275861" rx="0"></rect>
<rect x="153.92448275862066" y="179.5768965517241" width="6.413103448275861" height="6.413103448275861" rx="0"></rect>
<rect x="173.16379310344826" y="179.5768965517241" width="6.413103448275861" height="6.413103448275861" rx="0"></rect>
</g>
<g>
<rect x="3.2065517241379307" y="3.2065517241379307" width="38.478620689655166" fill="none" height="38.478620689655166" stroke-width="6.413103448275861" stroke="#222222"></rect>
<rect x="12.826206896551723" y="12.826206896551723" width="19.239310344827583" fill="#222222" height="19.239310344827583"></rect>
<rect x="144.3148275862069" y="3.2065517241379307" width="38.478620689655166" fill="none" height="38.478620689655166" stroke-width="6.413103448275861" stroke="#222222"></rect>
<rect x="153.9344827586207" y="12.826206896551723" width="19.239310344827583" fill="#222222" height="19.239310344827583"></rect>
<rect x="3.2065517241379307" y="144.3148275862069" width="38.478620689655166" fill="none" height="38.478620689655166" stroke-width="6.413103448275861" stroke="#222222"></rect>
<rect x="12.826206896551723" y="153.9344827586207" width="19.239310344827583" fill="#222222" height="19.239310344827583"></rect>
</g>
</g>
</svg>